<svg width="16" height="16" viewBox="0 0 16 16" fill="none" xmlns="http://www.w3.org/2000/svg">
<path fill-rule="evenodd" clip-rule="evenodd" d="M2 2H14V14H2V2ZM1 2C1 1.44772 1.44772 1 2 1H14C14.5523 1 15 1.44772 15 2V14C15 14.5523 14.5523 15 14 15H2C1.44772 15 1 14.5523 1 14V2ZM3.5 10H12.5V9H3.5V10ZM7.5 12.5H3.5V11.5H7.5V12.5ZM4.5 4.5H11.5V6.5H4.5L4.5 4.5ZM3.5 4.5C3.5 3.94772 3.94772 3.5 4.5 3.5H11.5C12.0523 3.5 12.5 3.94772 12.5 4.5V6.5C12.5 7.05228 12.0523 7.5 11.5 7.5H4.5C3.94772 7.5 3.5 7.05228 3.5 6.5V4.5Z" fill="currentColor"></path>
</svg>