<svg width="16" height="16" viewBox="0 0 16 16" fill="none" xmlns="http://www.w3.org/2000/svg">
<path fill-rule="evenodd" clip-rule="evenodd" d="M14.5 4H1.5V13H14.5V4ZM1.5 3C0.947715 3 0.5 3.44772 0.5 4V13C0.5 13.5523 0.947715 14 1.5 14H14.5C15.0523 14 15.5 13.5523 15.5 13V4C15.5 3.44772 15.0523 3 14.5 3H1.5ZM6.5 6H3.5V9H6.5V6ZM3.5 5C2.94772 5 2.5 5.44772 2.5 6V9C2.5 9.55228 2.94772 10 3.5 10H6.5C7.05228 10 7.5 9.55228 7.5 9V6C7.5 5.44772 7.05228 5 6.5 5H3.5ZM9.5 6H12.5V9H9.5V6ZM8.5 6C8.5 5.44772 8.94772 5 9.5 5H12.5C13.0523 5 13.5 5.44772 13.5 6V9C13.5 9.55228 13.0523 10 12.5 10H9.5C8.94771 10 8.5 9.55228 8.5 9V6ZM7.5 12H2.5V11H7.5V12ZM8.5 12H13.5V11H8.5V12Z" fill="currentColor"></path>
</svg>