<svg width="16" height="16" viewBox="0 0 16 16" fill="none" xmlns="http://www.w3.org/2000/svg">
<path fill-rule="evenodd" clip-rule="evenodd" d="M14 3.5H2V12.5L14 12.5V3.5ZM2 2.5C1.44772 2.5 1 2.94772 1 3.5V12.5C1 13.0523 1.44772 13.5 2 13.5H14C14.5523 13.5 15 13.0523 15 12.5V3.5C15 2.94772 14.5523 2.5 14 2.5H2Z" fill="currentColor"></path>
<path fill-rule="evenodd" clip-rule="evenodd" d="M14 7.5L2 7.5L2 6.5L14 6.5L14 7.5Z" fill="currentColor"></path>
<path fill-rule="evenodd" clip-rule="evenodd" d="M4 5.5H3V4.5H4V5.5Z" fill="currentColor"></path>
<path fill-rule="evenodd" clip-rule="evenodd" d="M11 5.5H5V4.5H11V5.5Z" fill="currentColor"></path>
</svg>