<svg width="16" height="16" viewBox="0 0 16 16" fill="none" xmlns="http://www.w3.org/2000/svg">
<path d="M1 10H5.375C5.375 10 5.08333 12.9167 8 12.9167C10.9167 12.9167 10.625 10 10.625 10H15V15H1V10Z" fill="#BCC4D0"/>
<path d="M8.54071 5.65921C8.05831 4.59178 7.32036 3.6715 6.48185 2.91178C5.64334 2.15206 4.66784 1.59401 3.6189 1.27398C2.59818 1.00771 1.54326 0.934798 0.5 1.05842C1.775 1.23704 3.09277 2.17438 4.00213 3.16764C4.8182 4.05901 5.62724 5.27861 6.18955 6.68231C6.03991 6.76791 5.14524 7.14913 4.61806 7.37176C4.46275 7.43735 4.45193 7.6537 4.60028 7.73378C5.68312 8.31832 7.87337 9.51553 8.55319 9.88731C8.66184 9.94674 8.79531 9.89531 8.83562 9.77821C9.10523 8.99508 10.0151 6.34562 10.3774 5.2075C10.4285 5.04687 10.2687 4.90729 10.1141 4.97455C9.66294 5.17088 8.92859 5.49043 8.54071 5.65921Z" fill="#BCC4D0"/>
</svg>
