<svg width="16" height="16" viewBox="0 0 16 16" fill="none" xmlns="http://www.w3.org/2000/svg">
<path d="M7 6H6V11H7V6Z" fill="currentColor"/>
<path d="M9 6H10V11H9V6Z" fill="currentColor"/>
<path fill-rule="evenodd" clip-rule="evenodd" d="M9.27924 1C9.70967 1 10.0918 1.27543 10.2279 1.68377L10.5613 2.68377C10.5962 2.78864 10.6128 2.89521 10.6128 3H14V4H13V13C13 13.5523 12.5523 14 12 14H4C3.44772 14 3 13.5523 3 13V4H2V3H5.38743C5.38743 2.89252 5.40475 2.78574 5.43874 2.68377L5.77208 1.68377C5.90819 1.27543 6.29033 1 6.72076 1H9.27924ZM6.38743 3H9.61257L9.27924 2H6.72076L6.38743 3ZM4 4V13H12V4H4Z" fill="currentColor"/>
</svg>
