<svg width="32" height="32" viewBox="0 0 32 32" fill="none" xmlns="http://www.w3.org/2000/svg">
<path fill-rule="evenodd" clip-rule="evenodd" d="M15.9956 16.0001L9.0832 27.9745C8.78602 28.4889 8.12839 28.6651 7.61397 28.3681L2.16937 25.2249C1.50385 24.8408 1.09375 24.1307 1.09375 23.3622V8.63893C1.09375 7.87053 1.50367 7.16038 2.16919 6.77627L7.46824 3.71682C8.13358 3.33271 8.95325 3.33271 9.61877 3.71664L15.9956 7.39697L2.7277 15.0701C2.01182 15.4841 2.01146 16.5174 2.72734 16.9318L7.47326 19.679C8.13932 20.0646 8.9606 20.0649 9.62683 19.6799L15.9956 16.0001Z" fill="#00A870"/>
<path fill-rule="evenodd" clip-rule="evenodd" d="M16 16L22.9124 4.02569C23.2096 3.51127 23.8672 3.33508 24.3816 3.63208L29.8262 6.77506C30.4917 7.15935 30.9018 7.8695 30.9018 8.6379V23.3612C30.9018 24.1296 30.4919 24.8398 29.8264 25.2239L24.5273 28.2833C23.862 28.6674 23.0423 28.6674 22.3768 28.2835L16 24.6032L29.2679 16.9301C29.9838 16.516 29.9841 15.4827 29.2682 15.0683L24.5223 12.3211C23.8563 11.9356 23.035 11.9352 22.3688 12.3202L16 16Z" fill="#4787F0"/>
</svg>
