<svg width="280" height="200" viewBox="0 0 280 200" fill="none" xmlns="http://www.w3.org/2000/svg">
<g clip-path="url(#clip0_10787_26899)">
<mask id="path-1-inside-1_10787_26899" fill="white">
<path d="M0 3C0 1.34314 1.34315 0 3 0H277C278.657 0 280 1.34315 280 3V197C280 198.657 278.657 200 277 200H3C1.34315 200 0 198.657 0 197V3Z"/>
</mask>
<path d="M0 3C0 1.34314 1.34315 0 3 0H277C278.657 0 280 1.34315 280 3V197C280 198.657 278.657 200 277 200H3C1.34315 200 0 198.657 0 197V3Z" fill="url(#paint0_linear_10787_26899)"/>
<path d="M15 0H280V16H15V0Z" fill="#D6DBE3"/>
<path d="M0 200L0 1.78814e-06H16L16 200H0Z" fill="url(#paint1_linear_10787_26899)"/>
<mask id="mask0_10787_26899" style="mask-type:alpha" maskUnits="userSpaceOnUse" x="3" y="4" width="5" height="8">
<path d="M3.77905 4.46423H7.97016V11.519H3.77905V4.46423Z" fill="white"/>
</mask>
<g mask="url(#mask0_10787_26899)">
<path fill-rule="evenodd" clip-rule="evenodd" d="M7.96995 7.99995L6.02584 11.3677C5.94226 11.5124 5.7573 11.562 5.61262 11.4784L4.08133 10.5944C3.89415 10.4864 3.77881 10.2867 3.77881 10.0705V5.92961C3.77881 5.71349 3.8941 5.51376 4.08128 5.40573L5.57163 4.54526C5.75876 4.43723 5.98929 4.43723 6.17647 4.54521L7.96995 5.58031L4.23836 7.73836C4.03702 7.85481 4.03691 8.14544 4.23826 8.26199L5.57305 9.03464C5.76037 9.14307 5.99136 9.14318 6.17874 9.03489L7.96995 7.99995Z" fill="#E3E6EB"/>
</g>
<path fill-rule="evenodd" clip-rule="evenodd" d="M7.97009 7.99983L9.9142 4.63206C9.99779 4.48738 10.1827 4.43782 10.3274 4.52136L11.8587 5.40532C12.0459 5.5134 12.1612 5.71313 12.1612 5.92924V10.0702C12.1612 10.2863 12.0459 10.486 11.8588 10.594L10.3684 11.4545C10.1813 11.5626 9.95075 11.5625 9.76357 11.4546L7.97009 10.4195L11.7017 8.26142C11.903 8.14497 11.9031 7.85435 11.7018 7.7378L10.367 6.96514C10.1797 6.85671 9.94869 6.85661 9.76131 6.96489L7.97009 7.99983Z" fill="#E3E6EB"/>
<path d="M16 16H66V200H16V16Z" fill="url(#paint2_linear_10787_26899)"/>
<path d="M230 16H280V200H230V16Z" fill="url(#paint3_linear_10787_26899)"/>
<path d="M253.5 26C253.5 25.4477 253.052 25 252.5 25H234.5C233.948 25 233.5 25.4477 233.5 26V34C233.5 34.5523 233.948 35 234.5 35H252.5C253.052 35 253.5 34.5523 253.5 34V26Z" fill="#E3E6EB"/>
<path d="M275.5 26C275.5 25.4477 275.052 25 274.5 25H256.5C255.948 25 255.5 25.4477 255.5 26V34C255.5 34.5523 255.948 35 256.5 35H274.5C275.052 35 275.5 34.5523 275.5 34V26Z" fill="#E3E6EB"/>
<rect x="233.5" y="39" width="20" height="10" rx="1" fill="#97A3B7"/>
<rect x="255.5" y="39" width="20" height="10" rx="1" fill="#E3E6EB"/>
<rect x="256" y="4" width="8" height="8" rx="1" fill="#E3E6EB"/>
<path d="M84 34H212V146H84V34Z" fill="white"/>
<path fill-rule="evenodd" clip-rule="evenodd" d="M84 36V34H86V35H85V36H84ZM94 34H90V35H94V34ZM98 34V35H102V34H98ZM106 34V35H110V34H106ZM114 34V35H118V34H114ZM122 34V35H126V34H122ZM130 34V35H134V34H130ZM138 34V35H142V34H138ZM146 34V35H150V34H146ZM154 34V35H158V34H154ZM162 34V35H166V34H162ZM170 34V35H174V34H170ZM178 34V35H182V34H178ZM186 34V35H190V34H186ZM194 34V35H198V34H194ZM202 34V35H206V34H202ZM210 34V35H211V36H212V34H210ZM212 40H211V44H212V40ZM212 48H211V52H212V48ZM212 56H211V60H212V56ZM212 64H211V68H212V64ZM212 72H211V76H212V72ZM212 80H211V84H212V80ZM212 88H211V92H212V88ZM212 96H211V100H212V96ZM212 104H211V108H212V104ZM212 112H211V116H212V112ZM212 120H211V124H212V120ZM212 128H211V132H212V128ZM212 136H211V140H212V136ZM212 144H211V145H210V146H212V144ZM206 146V145H202V146H206ZM198 146V145H194V146H198ZM190 146V145H186V146H190ZM182 146V145H178V146H182ZM174 146V145H170V146H174ZM166 146V145H162V146H166ZM158 146V145H154V146H158ZM150 146V145H146V146H150ZM142 146V145H138V146H142ZM134 146V145H130V146H134ZM126 146V145H122V146H126ZM118 146V145H114V146H118ZM110 146V145H106V146H110ZM102 146V145H98V146H102ZM94 146V145H90V146H94ZM86 146V145H85V144H84V146H86ZM84 140H85V136H84V140ZM84 132H85V128H84V132ZM84 124H85V120H84V124ZM84 116H85V112H84V116ZM84 108H85V104H84V108ZM84 100H85V96H84V100ZM84 92H85V88H84V92ZM84 84H85V80H84V84ZM84 76H85V72H84V76ZM84 68H85V64H84V68ZM84 60H85V56H84V60ZM84 52H85V48H84V52ZM84 44H85V40H84V44Z" fill="#BCC4D0"/>
<rect x="268" y="4" width="8" height="8" rx="1" fill="#E3E6EB"/>
<rect x="190.5" y="54.5" width="63" height="35" rx="0.5" fill="white"/>
<rect x="200" y="64" width="44" height="16" rx="1" fill="#4B5B76"/>
<path d="M211.578 74H213.482C213.944 74 214.315 73.881 214.581 73.636C214.847 73.398 214.987 73.097 214.987 72.74C214.987 72.474 214.91 72.257 214.763 72.075C214.609 71.893 214.42 71.767 214.189 71.697C214.371 71.627 214.525 71.508 214.658 71.354C214.791 71.2 214.861 70.997 214.861 70.759C214.861 70.395 214.714 70.101 214.434 69.863C214.154 69.632 213.797 69.513 213.377 69.513H211.578V74ZM213.293 70.29C213.482 70.29 213.636 70.346 213.762 70.444C213.888 70.542 213.951 70.675 213.951 70.829C213.951 70.983 213.888 71.116 213.762 71.214C213.636 71.319 213.482 71.368 213.3 71.368H212.453V70.29H213.293ZM213.398 72.089C213.594 72.089 213.755 72.145 213.881 72.25C214.007 72.355 214.07 72.488 214.07 72.649C214.07 72.817 214 72.957 213.874 73.062C213.748 73.174 213.587 73.223 213.391 73.223H212.453V72.089H213.398Z" fill="white"/>
<path d="M216.524 70.647H215.67V72.523C215.67 72.999 215.81 73.377 216.097 73.657C216.384 73.944 216.762 74.084 217.238 74.084C217.707 74.084 218.085 73.944 218.372 73.657C218.659 73.377 218.806 72.999 218.806 72.523V70.647H217.952V72.46C217.952 72.705 217.882 72.901 217.756 73.055C217.623 73.209 217.448 73.279 217.238 73.279C217.021 73.279 216.846 73.209 216.72 73.055C216.587 72.901 216.524 72.705 216.524 72.46V70.647Z" fill="white"/>
<path d="M219.416 71.403H220.004V72.852C220.004 73.258 220.102 73.566 220.298 73.776C220.494 73.993 220.767 74.098 221.117 74.098C221.495 74.098 221.796 73.986 222.034 73.762L221.649 73.125C221.551 73.237 221.418 73.293 221.257 73.293C220.998 73.293 220.872 73.139 220.872 72.824V71.403H221.775V70.647H220.865V69.779H220.011V70.647H219.416V71.403Z" fill="white"/>
<path d="M222.301 71.403H222.889V72.852C222.889 73.258 222.987 73.566 223.183 73.776C223.379 73.993 223.652 74.098 224.002 74.098C224.38 74.098 224.681 73.986 224.919 73.762L224.534 73.125C224.436 73.237 224.303 73.293 224.142 73.293C223.883 73.293 223.757 73.139 223.757 72.824V71.403H224.66V70.647H223.75V69.779H222.896V70.647H222.301V71.403Z" fill="white"/>
<path d="M226.891 74.098C227.374 74.098 227.787 73.93 228.13 73.58C228.466 73.237 228.641 72.817 228.641 72.327C228.641 71.837 228.466 71.424 228.13 71.074C227.787 70.724 227.374 70.549 226.891 70.549C226.401 70.549 225.988 70.724 225.652 71.074C225.316 71.424 225.148 71.837 225.148 72.327C225.148 72.817 225.316 73.237 225.652 73.58C225.988 73.93 226.401 74.098 226.891 74.098ZM226.898 73.293C226.639 73.293 226.422 73.202 226.254 73.013C226.086 72.824 226.002 72.593 226.002 72.32C226.002 72.054 226.086 71.823 226.254 71.634C226.422 71.452 226.639 71.354 226.898 71.354C227.15 71.354 227.36 71.452 227.528 71.634C227.696 71.823 227.78 72.054 227.78 72.32C227.78 72.593 227.696 72.824 227.528 73.013C227.36 73.202 227.15 73.293 226.898 73.293Z" fill="white"/>
<path d="M230.272 72.096C230.272 71.872 230.328 71.69 230.454 71.557C230.573 71.424 230.741 71.354 230.958 71.354C231.161 71.354 231.322 71.424 231.448 71.557C231.574 71.69 231.637 71.872 231.637 72.096V74H232.491V71.97C232.491 71.536 232.372 71.186 232.141 70.934C231.91 70.682 231.602 70.549 231.217 70.549C230.804 70.549 230.489 70.696 230.272 70.976V70.647H229.418V74H230.272V72.096Z" fill="white"/>
<rect x="190.5" y="54.5" width="63" height="35" rx="0.5" stroke="#D6DBE3"/>
<g filter="url(#filter0_b_10787_26899)">
<path d="M170.645 94.381L173.163 91.8637C175.226 89.7983 181.076 84.1597 187.579 83.0929C190.893 82.5493 193.386 82.4799 196.174 83.3461C195.862 82.98 195.535 82.6264 195.195 82.2864C187.579 75.5638 170.645 78.2338 163.094 86.8292L156.8 80.5361L154.283 103.191L176.938 100.674L170.645 94.381Z" fill="url(#paint4_linear_10787_26899)"/>
</g>
</g>
<path d="M-1 3C-1 0.790861 0.790861 -1 3 -1H277C279.209 -1 281 0.790861 281 3H279C279 1.89543 278.105 1 277 1H3C1.89543 1 1 1.89543 1 3H-1ZM280 200H0H280ZM3 200C0.790861 200 -1 198.209 -1 196V3C-1 0.790861 0.790861 -1 3 -1V1C1.89543 1 1 1.89543 1 3V197C1 198.657 1.89543 200 3 200ZM277 -1C279.209 -1 281 0.790861 281 3V196C281 198.209 279.209 200 277 200C278.105 200 279 198.657 279 197V3C279 1.89543 278.105 1 277 1V-1Z" fill="url(#paint5_linear_10787_26899)" mask="url(#path-1-inside-1_10787_26899)"/>
<defs>
<filter id="filter0_b_10787_26899" x="150.723" y="74.9407" width="49.0106" height="31.8106" filterUnits="userSpaceOnUse" color-interpolation-filters="sRGB">
<feFlood flood-opacity="0" result="BackgroundImageFix"/>
<feGaussianBlur in="BackgroundImageFix" stdDeviation="1.77996"/>
<feComposite in2="SourceAlpha" operator="in" result="effect1_backgroundBlur_10787_26899"/>
<feBlend mode="normal" in="SourceGraphic" in2="effect1_backgroundBlur_10787_26899" result="shape"/>
</filter>
<linearGradient id="paint0_linear_10787_26899" x1="140" y1="0" x2="140" y2="200" gradientUnits="userSpaceOnUse">
<stop stop-color="#EBEDF1"/>
<stop offset="1" stop-color="white"/>
</linearGradient>
<linearGradient id="paint1_linear_10787_26899" x1="8.00002" y1="-2.29111e-07" x2="8.00002" y2="189.5" gradientUnits="userSpaceOnUse">
<stop stop-color="#BCC4D0"/>
<stop offset="1" stop-color="#BCC4D0" stop-opacity="0"/>
</linearGradient>
<linearGradient id="paint2_linear_10787_26899" x1="41" y1="16" x2="41" y2="200" gradientUnits="userSpaceOnUse">
<stop stop-color="#E3E6EB"/>
<stop offset="1" stop-color="#EBEDF1" stop-opacity="0"/>
</linearGradient>
<linearGradient id="paint3_linear_10787_26899" x1="237.5" y1="16" x2="238.751" y2="181.6" gradientUnits="userSpaceOnUse">
<stop stop-color="white"/>
<stop offset="1" stop-color="white" stop-opacity="0.6"/>
</linearGradient>
<linearGradient id="paint4_linear_10787_26899" x1="154.205" y1="103.562" x2="202.5" y2="85.5" gradientUnits="userSpaceOnUse">
<stop stop-color="#97A3B7"/>
<stop offset="1" stop-color="#97A3B7" stop-opacity="0"/>
</linearGradient>
<linearGradient id="paint5_linear_10787_26899" x1="140" y1="0" x2="140" y2="200" gradientUnits="userSpaceOnUse">
<stop stop-color="#BCC4D0"/>
<stop offset="1" stop-color="#D6DBE3" stop-opacity="0"/>
</linearGradient>
<clipPath id="clip0_10787_26899">
<path d="M0 3C0 1.34314 1.34315 0 3 0H277C278.657 0 280 1.34315 280 3V197C280 198.657 278.657 200 277 200H3C1.34315 200 0 198.657 0 197V3Z" fill="white"/>
</clipPath>
</defs>
</svg>
